<?xml version="1.0" standalone="no"?>
<!DOCTYPE svg PUBLIC "-//W3C//DTD SVG 20010904//EN"
 "http://www.w3.org/TR/2001/REC-SVG-20010904/DTD/svg10.dtd">
<svg version="1.0" xmlns="http://www.w3.org/2000/svg"
 width="512.000000pt" height="512.000000pt" viewBox="0 0 512.000000 512.000000"
 preserveAspectRatio="xMidYMid meet">

<g transform="translate(0.000000,512.000000) scale(0.100000,-0.100000)"
fill="#000000" stroke="none">
<path d="M724 5110 c-32 -13 -54 -50 -54 -91 0 -28 18 -64 85 -167 l84 -131
-27 -19 c-15 -10 -191 -119 -391 -242 -199 -122 -375 -233 -390 -245 -21 -19
-26 -32 -25 -67 0 -39 26 -83 316 -523 l315 -480 148 -120 148 -121 117 -309
c64 -171 184 -488 266 -705 91 -243 157 -404 171 -417 15 -16 34 -23 59 -23
25 0 268 87 703 251 366 138 677 257 692 264 27 14 49 53 49 86 0 11 -125 351
-277 756 -255 675 -280 738 -308 755 -43 26 -59 23 -192 -27 -65 -25 -121 -45
-125 -45 -4 0 -12 26 -18 58 -51 251 -94 351 -201 466 -59 64 -120 109 -336
254 l-264 176 -123 180 c-67 100 -160 240 -205 311 -115 180 -145 204 -217
175z m279 -630 c26 -37 47 -73 47 -78 0 -8 -197 -131 -671 -419 l-37 -23 -50
77 -51 77 117 72 c64 39 223 137 352 217 129 80 237 146 240 146 3 0 26 -31
53 -69z m448 -401 c252 -168 298 -209 349 -313 24 -48 90 -302 90 -345 0 -7
-253 -106 -272 -106 -3 0 -46 54 -95 120 -49 66 -97 127 -107 135 -11 8 -37
14 -59 14 -32 -1 -47 -8 -69 -33 -55 -61 -52 -66 198 -406 195 -264 227 -312
231 -348 8 -79 -65 -147 -142 -133 -21 4 -92 55 -202 144 -94 75 -263 211
-376 302 l-204 165 -164 250 c-90 137 -164 255 -164 262 0 16 726 462 740 455
6 -3 116 -76 246 -163z"/>
<path d="M4968 4093 c-61 -38 -63 -118 -4 -165 41 -34 116 -16 142 33 48 93
-50 186 -138 132z"/>
<path d="M4751 3733 c-16 -16 -174 -275 -351 -578 -178 -302 -373 -624 -435
-715 l-111 -165 -267 -180 c-285 -193 -315 -217 -383 -311 -66 -92 -101 -177
-134 -324 -17 -74 -32 -136 -35 -138 -2 -2 -60 16 -129 42 -69 25 -133 46
-142 46 -28 0 -71 -32 -86 -64 -8 -17 -109 -282 -224 -588 l-209 -558 -882 0
c-662 0 -889 -3 -908 -12 -29 -13 -55 -55 -55 -88 0 -33 26 -75 55 -88 20 -9
560 -12 2306 -12 2481 0 2320 -4 2347 55 24 51 4 112 -43 133 -19 9 -165 12
-550 12 -289 0 -525 2 -525 3 0 2 44 122 98 266 l99 262 139 113 c76 62 146
122 155 132 10 11 157 233 329 494 296 451 311 477 307 513 -3 21 -12 46 -20
55 -9 9 -196 127 -416 262 -275 169 -399 249 -395 259 2 8 140 243 305 523
165 280 307 524 316 542 46 98 -77 183 -156 109z m-228 -1571 c191 -118 347
-218 347 -224 0 -16 -90 -149 -98 -145 -64 38 -690 422 -696 428 -9 8 83 161
95 156 3 -1 161 -98 352 -215z m-227 -314 c200 -122 364 -226 364 -230 0 -5
-74 -122 -165 -260 l-165 -252 -357 -289 c-197 -160 -371 -298 -388 -308 -78
-48 -185 14 -185 108 0 38 23 73 262 395 97 130 181 245 187 257 33 61 -14
141 -84 141 -20 0 -45 -4 -55 -10 -10 -5 -60 -66 -111 -135 -51 -69 -97 -124
-103 -122 -161 59 -266 101 -266 107 0 4 14 68 30 141 36 160 79 254 149 325
46 47 492 354 514 354 6 0 173 -100 373 -222z m-1234 -759 c117 -44 236 -90
265 -100 l52 -20 -73 -99 c-89 -119 -110 -173 -104 -273 6 -122 74 -224 183
-278 42 -20 65 -24 140 -24 108 0 142 14 260 109 44 35 81 63 83 62 1 -2 -20
-61 -47 -132 l-49 -129 -656 -3 -656 -2 20 52 c11 29 93 248 183 485 89 238
167 433 174 433 6 0 107 -36 225 -81z"/>
<path d="M51 186 c-87 -48 -50 -186 49 -186 51 0 100 49 100 99 0 75 -83 124
-149 87z"/>
</g>
</svg>
